<?xml version="1.0" standalone="no"?>
<!DOCTYPE svg PUBLIC "-//W3C//DTD SVG 20010904//EN"
 "http://www.w3.org/TR/2001/REC-SVG-20010904/DTD/svg10.dtd">
<svg version="1.0" xmlns="http://www.w3.org/2000/svg"
 width="512.000000pt" height="512.000000pt" viewBox="0 0 512.000000 512.000000"
 preserveAspectRatio="xMidYMid meet">
<metadata>
Created by potrace 1.11, written by Peter Selinger 2001-2013
</metadata>
<g transform="translate(0.000000,512.000000) scale(0.100000,-0.100000)"
fill="#000000" stroke="none">
<path d="M2323 5110 c-316 -31 -597 -112 -888 -255 -278 -137 -479 -280 -692
-496 -211 -214 -343 -400 -479 -674 -124 -251 -196 -483 -241 -775 -24 -161
-24 -539 0 -700 70 -449 234 -845 496 -1195 96 -127 306 -343 436 -448 349
-282 774 -468 1230 -539 201 -31 549 -31 750 0 434 68 823 232 1173 494 119
89 339 302 437 423 287 353 475 780 547 1240 31 201 31 549 0 750 -71 456
-257 881 -539 1230 -105 130 -321 340 -448 436 -346 259 -749 428 -1185 494
-125 19 -468 27 -597 15z m532 -813 c190 -36 318 -78 490 -163 416 -205 740
-578 884 -1019 71 -216 97 -398 88 -620 -18 -451 -186 -841 -501 -1163 -263
-270 -583 -439 -961 -508 -140 -26 -450 -26 -590 0 -384 70 -703 240 -970 518
-254 264 -405 558 -471 923 -23 125 -26 451 -6 565 36 199 82 341 168 515 251
507 754 875 1304 954 41 6 86 13 100 15 54 10 389 -3 465 -17z"/>
<path d="M2445 3994 c-737 -74 -1285 -645 -1319 -1374 l-6 -115 20 110 c58
325 185 571 409 796 281 280 618 421 1011 421 393 0 730 -141 1011 -421 224
-225 351 -471 409 -796 l20 -110 -6 108 c-10 217 -57 402 -149 584 -202 405
-574 688 -1016 774 -96 18 -305 31 -384 23z"/>
<path d="M2902 3163 l-312 -197 73 -21 c236 -68 356 -310 267 -540 -32 -84
-132 -183 -215 -215 -232 -88 -472 31 -540 268 l-21 73 -198 -318 c-206 -331
-216 -352 -186 -407 10 -20 11 -31 2 -51 -35 -76 9 -155 86 -155 34 0 83 27
353 197 l314 197 71 6 c194 18 346 170 364 364 l6 71 197 314 c207 330 219
357 183 406 -12 17 -12 23 0 47 41 79 -3 159 -87 157 -40 0 -75 -20 -357 -196z"/>
</g>
</svg>
